<svg width="64" height="64" viewBox="0 0 64 64" fill="none" xmlns="http://www.w3.org/2000/svg">
<path fill-rule="evenodd" clip-rule="evenodd" d="M32 58.6667C41 58.6667 56 42.1283 56 29.0371C56 15.9459 45.2548 5.33337 32 5.33337C18.7452 5.33337 8 15.9459 8 29.0371C8 42.1283 23 58.6667 32 58.6667ZM32 37.3334C36.4183 37.3334 40 33.7517 40 29.3334C40 24.9151 36.4183 21.3334 32 21.3334C27.5817 21.3334 24 24.9151 24 29.3334C24 33.7517 27.5817 37.3334 32 37.3334Z" fill="#141718"/>
<circle cx="32" cy="29.6514" r="20" fill="#141718"/>
<path d="M40 29.6514V35.6514C40 37.8605 38.2091 39.6514 36 39.6514H28C25.7909 39.6514 24 37.8605 24 35.6514V29.6514" stroke="#FEFEFE" stroke-width="1.5" stroke-linejoin="round"/>
<path d="M36.7687 19.6514H27.2312C25.4139 19.6514 23.7796 20.8961 23.1047 22.7944L22.3467 24.9262C22.1172 25.5716 21.9586 26.2621 22.126 26.9262C22.5223 28.4991 23.8082 29.6514 25.3333 29.6514C27.1742 29.6514 28.6666 27.9724 28.6666 25.9014C28.6666 27.9724 30.159 29.6514 32 29.6514C33.8409 29.6514 35.3333 27.9724 35.3333 25.9014C35.3333 27.9724 36.8257 29.6514 38.6666 29.6514C40.1917 29.6514 41.4776 28.4991 41.8739 26.9262C42.0413 26.2621 41.8827 25.5716 41.6533 24.9262L40.8953 22.7944C40.2203 20.8961 38.5861 19.6514 36.7687 19.6514Z" stroke="#FEFEFE" stroke-width="1.5" stroke-linejoin="round"/>
<path d="M29 36.6514C29 34.9945 30.3431 33.6514 32 33.6514C33.6569 33.6514 35 34.9945 35 36.6514V39.6514H29V36.6514Z" stroke="#FEFEFE" stroke-width="1.5" stroke-linejoin="round"/>
</svg>
