<svg width="47" height="17" viewBox="0 0 47 17" fill="none" xmlns="http://www.w3.org/2000/svg">
<path d="M9.50732 16.6421V9.43872H17.1352L17.9536 10.5055L18.799 9.43872H46.4863V16.1453C46.4863 16.1453 45.7623 16.6349 44.9248 16.6421H29.5938L28.6711 15.5066V16.6421H25.6475V14.7037C25.6475 14.7037 25.2345 14.9743 24.3415 14.9743H23.3123V16.6421H18.7343L17.9171 15.5524L17.0873 16.6421H9.50732Z" fill="#016FD0"/>
<path d="M0.600098 4.00973L2.32021 0H5.29497L6.27116 2.24609V0H9.96906L10.5502 1.6234L11.1136 0H27.7133V0.81614C27.7133 0.81614 28.5859 0 30.0201 0L35.4061 0.0188204L36.3654 2.23551V0H39.46L40.3117 1.27331V0H43.4347V7.20333H40.3117L39.4955 5.92589V7.20333H34.9488L34.4916 6.06782H33.2693L32.8195 7.20333H29.7361C28.5021 7.20333 27.7133 6.40385 27.7133 6.40385V7.20333H23.0643L22.1416 6.06782V7.20333H4.85428L4.39737 6.06782H3.17897L2.72529 7.20333H0.600098V4.00973Z" fill="#016FD0"/>
<path d="M2.92797 0.887817L0.60791 6.28207H2.11839L2.54647 5.20189H5.0351L5.46096 6.28207H7.00471L4.68687 0.887817H2.92797ZM3.78635 2.14322L4.54491 4.03077H3.02556L3.78635 2.14322Z" fill="white"/>
<path d="M7.16406 6.28079V0.886536L9.31054 0.894509L10.559 4.37238L11.7776 0.886536H13.9069V6.28079H12.5583V2.30608L11.1288 6.28079H9.94612L8.51263 2.30608V6.28079H7.16406Z" fill="white"/>
<path d="M14.8311 6.28084V0.886536H19.2317V2.09316H16.1938V3.01586H19.1607V4.15151H16.1938V5.10971H19.2317V6.28084H14.8311Z" fill="white"/>
<path d="M20.0112 0.887817V6.28212H21.3598V4.36572H21.9276L23.5446 6.28212H25.1926L23.4182 4.29475C24.1464 4.23329 24.8976 3.60826 24.8976 2.63786C24.8976 1.50271 24.0066 0.887817 23.0123 0.887817H20.0112ZM21.3598 2.09444H22.9014C23.2711 2.09444 23.5402 2.3837 23.5402 2.66226C23.5402 3.02063 23.1916 3.23008 22.9213 3.23008H21.3598V2.09444Z" fill="white"/>
<path d="M26.8267 6.28084H25.4497V0.886536H26.8267V6.28084Z" fill="white"/>
<path d="M30.0913 6.28084H29.7941C28.356 6.28084 27.4829 5.14786 27.4829 3.60587C27.4829 2.02578 28.3463 0.886536 30.1623 0.886536H31.6528V2.16413H30.1078C29.3706 2.16413 28.8492 2.73946 28.8492 3.61917C28.8492 4.66385 29.4454 5.10261 30.3043 5.10261H30.6592L30.0913 6.28084Z" fill="white"/>
<path d="M33.0271 0.887817L30.707 6.28207H32.2175L32.6456 5.20189H35.1342L35.5601 6.28207H37.1038L34.786 0.887817H33.0271ZM33.8855 2.14322L34.644 4.03077H33.1247L33.8855 2.14322Z" fill="white"/>
<path d="M37.2598 6.28084V0.886536H38.9743L41.1635 4.27572V0.886536H42.5121V6.28084H40.853L38.6083 2.80293V6.28084H37.2598Z" fill="white"/>
<path d="M10.4302 15.7202V10.3259H14.8308V11.5326H11.7929V12.4553H14.7598V13.5909H11.7929V14.5491H14.8308V15.7202H10.4302Z" fill="white"/>
<path d="M31.9922 15.7202V10.3259H36.3928V11.5326H33.355V12.4553H36.3076V13.5909H33.355V14.5491H36.3928V15.7202H31.9922Z" fill="white"/>
<path d="M15.0022 15.7202L17.1448 13.0563L14.9512 10.3259H16.6502L17.9566 12.0138L19.2675 10.3259H20.8999L18.7351 13.0231L20.8817 15.7202H19.183L17.9145 14.0589L16.6768 15.7202H15.0022Z" fill="white"/>
<path d="M21.0405 10.3265V15.7208H22.4246V14.0174H23.8441C25.0453 14.0174 25.9557 13.3801 25.9557 12.1409C25.9557 11.1143 25.2417 10.3265 24.0194 10.3265H21.0405ZM22.4246 11.5465H23.9196C24.3076 11.5465 24.585 11.7843 24.585 12.1675C24.585 12.5275 24.309 12.7886 23.9151 12.7886H22.4246V11.5465Z" fill="white"/>
<path d="M26.542 10.3259V15.7202H27.8906V13.8038H28.4584L30.0753 15.7202H31.7234L29.9489 13.7329C30.6772 13.6714 31.4284 13.0464 31.4284 12.076C31.4284 10.9408 30.5374 10.3259 29.543 10.3259H26.542ZM27.8906 11.5326H29.4321C29.8019 11.5326 30.0709 11.8218 30.0709 12.1004C30.0709 12.4587 29.7224 12.6682 29.4521 12.6682H27.8906V11.5326Z" fill="white"/>
<path d="M37.0184 15.7202V14.5491H39.7173C40.1167 14.5491 40.2896 14.3333 40.2896 14.0966C40.2896 13.8698 40.1172 13.6406 39.7173 13.6406H38.4977C37.4376 13.6406 36.8472 12.9947 36.8472 12.025C36.8472 11.16 37.3878 10.3259 38.9632 10.3259H41.5894L41.0215 11.5396H38.7503C38.3161 11.5396 38.1824 11.7675 38.1824 11.985C38.1824 12.2087 38.3476 12.4553 38.6793 12.4553H39.9569C41.1387 12.4553 41.6515 13.1256 41.6515 14.0035C41.6515 14.9472 41.08 15.7202 39.8925 15.7202H37.0184Z" fill="white"/>
<path d="M41.9671 15.7202V14.5491H44.6661C45.0654 14.5491 45.2383 14.3333 45.2383 14.0966C45.2383 13.8698 45.0659 13.6406 44.6661 13.6406H43.4464C42.3863 13.6406 41.7959 12.9947 41.7959 12.025C41.7959 11.16 42.3366 10.3259 43.9119 10.3259H46.4845L45.9703 11.5396H43.699C43.2648 11.5396 43.1312 11.7675 43.1312 11.985C43.1312 12.2087 43.2963 12.4553 43.628 12.4553H44.9056C46.0874 12.4553 46.6002 13.1256 46.6002 14.0035C46.6002 14.9472 46.0288 15.7202 44.8413 15.7202H41.9671Z" fill="white"/>
</svg>
