<svg width="32" height="14" viewBox="0 0 32 14" fill="none" xmlns="http://www.w3.org/2000/svg">
<path fill-rule="evenodd" clip-rule="evenodd" d="M4.27176 2.46767C4.87183 2.51829 5.47189 2.16396 5.84694 1.71472C6.21573 1.25282 6.45951 0.632737 6.397 0C5.86569 0.0253095 5.20936 0.354333 4.83432 0.816231C4.49053 1.21486 4.19675 1.86025 4.27176 2.46767ZM11.4101 10.6161V0.752843H15.0667C16.9545 0.752843 18.2734 2.06878 18.2734 3.99208C18.2734 5.91538 16.9295 7.24397 15.0167 7.24397H12.9227V10.6161H11.4101ZM6.39082 2.58758C5.86217 2.55678 5.3798 2.74849 4.99018 2.90334C4.73945 3.00299 4.52712 3.08738 4.36559 3.08738C4.18432 3.08738 3.96323 2.99848 3.71499 2.89867C3.38973 2.76788 3.01785 2.61836 2.62789 2.62554C1.73403 2.63819 0.902688 3.15065 0.446386 3.96678C-0.491223 5.59906 0.202608 8.01583 1.10896 9.34442C1.55276 10.0024 2.08407 10.7236 2.78416 10.6983C3.09215 10.6866 3.3137 10.5914 3.54299 10.4929C3.80696 10.3796 4.08118 10.2618 4.50935 10.2618C4.92269 10.2618 5.18491 10.3765 5.43664 10.4866C5.67599 10.5913 5.90584 10.6918 6.24706 10.6857C6.97214 10.673 7.42844 10.0277 7.87224 9.36973C8.35117 8.66356 8.56164 7.97436 8.59358 7.86977L8.59733 7.85766C8.59656 7.85689 8.59064 7.85415 8.58021 7.84931C8.42011 7.77513 7.1964 7.20811 7.18466 5.68763C7.17288 4.4114 8.15527 3.76479 8.30992 3.663C8.31933 3.65681 8.32568 3.65263 8.32855 3.65045C7.70347 2.71411 6.72836 2.61288 6.39082 2.58758ZM21.0365 10.692C21.9866 10.692 22.868 10.2049 23.268 9.43302H23.2993V10.6161H24.6994V5.70663C24.6994 4.28314 23.5743 3.36578 21.8428 3.36578C20.2364 3.36578 19.0488 4.29579 19.005 5.57377H20.3677C20.4802 4.96642 21.0365 4.56784 21.7991 4.56784C22.7242 4.56784 23.243 5.00438 23.243 5.80786V6.35195L21.3553 6.46583C19.5988 6.57338 18.6487 7.30094 18.6487 8.56627C18.6487 9.84425 19.6301 10.692 21.0365 10.692ZM21.4425 9.52184C20.6362 9.52184 20.1236 9.12954 20.1236 8.52844C20.1236 7.90836 20.6174 7.5477 21.5613 7.49075L23.2427 7.38319V7.94C23.2427 8.86379 22.4677 9.52184 21.4425 9.52184ZM29.3432 11.002C28.7369 12.7292 28.0431 13.2986 26.5679 13.2986C26.4554 13.2986 26.0804 13.2859 25.9929 13.2606V12.0775C26.0866 12.0902 26.3179 12.1028 26.4367 12.1028C27.1055 12.1028 27.4805 11.8181 27.7118 11.0779L27.8493 10.6414L25.2865 3.46065H26.868L28.6494 9.28748H28.6807L30.4621 3.46065H31.9998L29.3432 11.002ZM12.9229 2.04351H14.6668C15.9795 2.04351 16.7295 2.75217 16.7295 3.99866C16.7295 5.24516 15.9795 5.96015 14.6606 5.96015H12.9229V2.04351Z" fill="black"/>
</svg>
