<svg width="33" height="20" viewBox="0 0 33 20" fill="none" xmlns="http://www.w3.org/2000/svg">
<path fill-rule="evenodd" clip-rule="evenodd" d="M16.2001 17.2878C14.5055 18.7501 12.3072 19.6328 9.90508 19.6328C4.54522 19.6328 0.200195 15.2379 0.200195 9.81641C0.200195 4.39496 4.54522 0 9.90508 0C12.3072 0 14.5055 0.882744 16.2001 2.34502C17.8948 0.882744 20.0931 0 22.4952 0C27.8551 0 32.2001 4.39496 32.2001 9.81641C32.2001 15.2379 27.8551 19.6328 22.4952 19.6328C20.0931 19.6328 17.8948 18.7501 16.2001 17.2878Z" fill="#ED0006"/>
<path fill-rule="evenodd" clip-rule="evenodd" d="M16.2002 17.2878C18.2869 15.4873 19.61 12.8081 19.61 9.81641C19.61 6.82467 18.2869 4.14553 16.2002 2.34502C17.8949 0.882744 20.0931 0 22.4953 0C27.8551 0 32.2001 4.39496 32.2001 9.81641C32.2001 15.2379 27.8551 19.6328 22.4953 19.6328C20.0931 19.6328 17.8949 18.7501 16.2002 17.2878Z" fill="#F9A000"/>
<path fill-rule="evenodd" clip-rule="evenodd" d="M16.2003 17.2878C18.287 15.4873 19.6102 12.8082 19.6102 9.81643C19.6102 6.82469 18.287 4.14554 16.2003 2.34503C14.1137 4.14554 12.7905 6.82469 12.7905 9.81643C12.7905 12.8082 14.1137 15.4873 16.2003 17.2878Z" fill="#FF5E00"/>
</svg>
