<svg width="38" height="10" viewBox="0 0 38 10" fill="none" xmlns="http://www.w3.org/2000/svg">
<path fill-rule="evenodd" clip-rule="evenodd" d="M4.90329 0.0012207H1.98432C1.78458 0.0012207 1.61469 0.146378 1.58354 0.343478L0.402964 7.82771C0.379499 7.97544 0.493882 8.10855 0.643699 8.10855H2.03724C2.23699 8.10855 2.40687 7.96339 2.43802 7.7659L2.75644 5.74731C2.78715 5.54962 2.95745 5.40466 3.15679 5.40466H4.08083C6.00365 5.40466 7.11331 4.47426 7.40326 2.63066C7.53382 1.82409 7.40879 1.19033 7.03094 0.746365C6.61615 0.259147 5.88021 0.0012207 4.90329 0.0012207ZM5.24005 2.73474C5.08046 3.78205 4.28016 3.78205 3.50635 3.78205H3.06587L3.37488 1.82607C3.39323 1.70796 3.49566 1.62087 3.61518 1.62087H3.81706C4.34418 1.62087 4.84147 1.62087 5.09844 1.92126C5.25151 2.10058 5.29852 2.3668 5.24005 2.73474ZM13.6288 2.70116H12.231C12.1119 2.70116 12.009 2.78826 11.9906 2.90656L11.9288 3.2974L11.831 3.15579C11.5284 2.71657 10.8537 2.56983 10.1802 2.56983C8.63537 2.56983 7.31615 3.73959 7.05919 5.38057C6.92566 6.19898 7.11548 6.98165 7.57984 7.52752C8.00588 8.02936 8.61542 8.2385 9.3405 8.2385C10.5851 8.2385 11.2754 7.43825 11.2754 7.43825L11.213 7.82673C11.1895 7.97524 11.3038 8.10835 11.4528 8.10835H12.7119C12.9122 8.10835 13.0811 7.96319 13.1127 7.7657L13.8682 2.982C13.8921 2.83487 13.7781 2.70116 13.6288 2.70116ZM11.6803 5.42144C11.5454 6.21991 10.9116 6.75591 10.1033 6.75591C9.69742 6.75591 9.3729 6.62577 9.16472 6.3791C8.95811 6.1342 8.8795 5.78543 8.94527 5.39716C9.07129 4.6054 9.71579 4.05202 10.5118 4.05202C10.9086 4.05202 11.2313 4.18375 11.4439 4.43259C11.6568 4.684 11.7413 5.03475 11.6803 5.42144ZM19.6687 2.70097H21.0734C21.2701 2.70097 21.3849 2.92157 21.2731 3.08292L16.6012 9.82576C16.5256 9.93498 16.4009 9.99995 16.2678 9.99995H14.8649C14.6673 9.99995 14.552 9.77757 14.6664 9.61582L16.1211 7.56267L14.5739 3.02268C14.5204 2.86488 14.6369 2.70097 14.8048 2.70097H16.1851C16.3644 2.70097 16.5226 2.81867 16.5744 2.99029L17.3954 5.7323L19.3329 2.87891C19.4087 2.76752 19.5347 2.70097 19.6687 2.70097Z" fill="#253B80"/>
<path fill-rule="evenodd" clip-rule="evenodd" d="M34.8991 7.82689L36.0971 0.20579C36.1155 0.0874906 36.218 0.000394988 36.3371 0H37.6857C37.8346 0 37.949 0.133506 37.9255 0.281231L36.7442 7.76507C36.7133 7.96257 36.5435 8.10773 36.3434 8.10773H35.1389C34.99 8.10773 34.8756 7.97461 34.8991 7.82689ZM25.7247 0.000395525H22.8052C22.6059 0.000395525 22.436 0.145553 22.4048 0.342652L21.2243 7.82689C21.2008 7.97461 21.3151 8.10773 21.4642 8.10773H22.9622C23.1015 8.10773 23.2206 8.00621 23.2423 7.86797L23.5773 5.74649C23.6081 5.54879 23.7784 5.40383 23.9776 5.40383H24.9012C26.8245 5.40383 27.9339 4.47344 28.2241 2.62983C28.355 1.82327 28.2292 1.18951 27.8515 0.745539C27.437 0.258321 26.7016 0.000395525 25.7247 0.000395525ZM26.0615 2.73391C25.9023 3.78122 25.1019 3.78122 24.3276 3.78122H23.8876L24.1971 1.82524C24.2155 1.70714 24.317 1.62004 24.4369 1.62004H24.6387C25.1655 1.62004 25.6633 1.62004 25.92 1.92043C26.0733 2.09976 26.1199 2.36598 26.0615 2.73391ZM34.4494 2.70034H33.0526C32.9325 2.70034 32.8306 2.78743 32.8126 2.90573L32.7508 3.29657L32.6526 3.15497C32.35 2.71574 31.6757 2.569 31.0021 2.569C29.4574 2.569 28.1385 3.73876 27.8816 5.37974C27.7484 6.19816 27.9375 6.98082 28.4018 7.5267C28.8287 8.02853 29.4374 8.23768 30.1625 8.23768C31.407 8.23768 32.0972 7.43743 32.0972 7.43743L32.035 7.8259C32.0114 7.97442 32.1258 8.10753 32.2757 8.10753H33.5343C33.7336 8.10753 33.9035 7.96237 33.9347 7.76487L34.6906 2.98117C34.7137 2.83404 34.5993 2.70034 34.4494 2.70034ZM32.5011 5.42062C32.367 6.21909 31.7324 6.75509 30.9239 6.75509C30.5188 6.75509 30.1937 6.62494 29.9853 6.37827C29.7787 6.13338 29.7011 5.7846 29.7661 5.39633C29.8927 4.60458 30.5364 4.0512 31.3324 4.0512C31.7294 4.0512 32.0519 4.18292 32.2647 4.43177C32.4784 4.68318 32.5629 5.03393 32.5011 5.42062Z" fill="#179BD7"/>
</svg>
