<svg width="37" height="15" viewBox="0 0 37 15" fill="none" xmlns="http://www.w3.org/2000/svg">
<path fill-rule="evenodd" clip-rule="evenodd" d="M20.3658 2.03294L17.846 2.57372V0.530768L20.3658 0V2.03294ZM10.1261 1.16151L7.67661 1.6822L7.66657 9.70289C7.66657 11.1849 8.78091 12.2763 10.2667 12.2763C11.0899 12.2763 11.6922 12.1261 12.0235 11.9459V9.91317C11.7023 10.0433 10.1161 10.504 10.1161 9.02198V5.46725H12.0235V3.33441H10.1161L10.1261 1.16151ZM4.19301 5.3371C3.66094 5.3371 3.33969 5.4873 3.33969 5.87782C3.33969 6.30421 3.89256 6.49177 4.57847 6.72447C5.69666 7.10381 7.16839 7.6031 7.17461 9.45259C7.17461 11.245 5.73902 12.2764 3.6509 12.2764C2.78754 12.2764 1.84387 12.1061 0.910234 11.7056V9.32241C1.75352 9.78303 2.81766 10.1235 3.6509 10.1235C4.21309 10.1235 4.61465 9.97328 4.61465 9.51267C4.61465 9.04037 4.01532 8.82448 3.29177 8.56386C2.18984 8.16694 0.799805 7.66624 0.799805 5.99798C0.799805 4.22562 2.15508 3.1642 4.19301 3.1642C5.02625 3.1642 5.84945 3.29438 6.6827 3.62482V5.97796C5.91973 5.56741 4.95598 5.3371 4.19301 5.3371ZM15.1457 4.07542L14.9851 3.33443H12.8167V12.0961H15.3264V6.1582C15.9187 5.38717 16.9226 5.52736 17.2338 5.6375V3.33443C16.9126 3.21427 15.738 2.99398 15.1457 4.07542ZM17.846 3.3344H20.3658V12.0961H17.846V3.3344ZM36.9402 7.75031C36.9402 5.1869 35.6954 3.1642 33.3161 3.1642C30.9268 3.1642 29.4812 5.1869 29.4812 7.73029C29.4812 10.7443 31.1878 12.2663 33.6374 12.2663C34.832 12.2663 35.7355 11.996 36.4182 11.6155V9.6128C35.7355 9.95325 34.9525 10.1635 33.9586 10.1635C32.9848 10.1635 32.1215 9.82308 32.011 8.6415H36.9201C36.9201 8.58631 36.9237 8.46093 36.9279 8.31649L36.9279 8.31562C36.9336 8.11954 36.9402 7.88855 36.9402 7.75031ZM31.9812 6.79922C31.9812 5.66758 32.6739 5.1969 33.3064 5.1969C33.9187 5.1969 34.5713 5.66758 34.5713 6.79922H31.9812ZM23.6383 3.94525C23.9897 3.62482 24.6221 3.1642 25.6059 3.1642C27.3628 3.1642 29.0192 4.74631 29.0293 7.65019C29.0293 10.8244 27.3929 12.2663 25.5959 12.2663C24.7125 12.2663 24.1804 11.8959 23.819 11.6355L23.809 14.4693L21.2992 15V3.32442H23.5078L23.6383 3.94525ZM23.8188 9.59324C24.0597 9.85361 24.4111 10.0639 25.0034 10.0639C25.927 10.0639 26.5494 9.06247 26.5494 7.72053C26.5494 6.40863 25.917 5.38716 25.0034 5.38716C24.4312 5.38716 24.0698 5.58745 23.8088 5.87787L23.8188 9.59324Z" fill="#6461FC"/>
</svg>
