<svg width="42" height="14" viewBox="0 0 42 14" fill="none" xmlns="http://www.w3.org/2000/svg">
<path d="M17.8458 12.9871H14.5098L16.5963 0.231079H19.9321L17.8458 12.9871Z" fill="#00579F"/>
<path d="M29.9377 0.543074C29.2797 0.284974 28.2361 0 26.9456 0C23.6512 0 21.3313 1.7369 21.3171 4.22014C21.2897 6.05227 22.9781 7.06988 24.2408 7.68077C25.5315 8.305 25.9702 8.71244 25.9702 9.26886C25.9571 10.1234 24.9273 10.5173 23.9668 10.5173C22.6349 10.5173 21.9213 10.3142 20.8368 9.83881L20.3975 9.635L19.9307 12.4984C20.7131 12.8509 22.1546 13.1636 23.6512 13.1773C27.1516 13.1773 29.4304 11.4673 29.4574 8.82102C29.4707 7.36892 28.5792 6.25626 26.6572 5.34705C25.4904 4.76339 24.7759 4.36984 24.7759 3.77266C24.7895 3.22976 25.3802 2.6737 26.6973 2.6737C27.7818 2.64647 28.5787 2.90421 29.1823 3.16213L29.484 3.29758L29.9377 0.543074Z" fill="#00579F"/>
<path d="M34.3732 8.46808C34.648 7.73527 35.7051 4.89906 35.7051 4.89906C35.6913 4.92629 35.9793 4.15271 36.144 3.67782L36.3772 4.77695C36.3772 4.77695 37.0089 7.83032 37.1461 8.46808C36.6247 8.46808 35.0322 8.46808 34.3732 8.46808ZM38.4911 0.231079H35.9107C35.115 0.231079 34.5104 0.461583 34.1671 1.28945L29.2119 12.9869H32.7123C32.7123 12.9869 33.2886 11.4125 33.4124 11.0734C33.7964 11.0734 37.2016 11.0734 37.6956 11.0734C37.7913 11.5213 38.0936 12.9869 38.0936 12.9869H41.1824L38.4911 0.231079Z" fill="#00579F"/>
<path d="M11.7231 0.231079L8.45606 8.92945L8.09905 7.16532C7.49505 5.12974 5.60075 2.91813 3.48682 1.81845L6.47931 12.9736H10.007L15.2506 0.231079H11.7231Z" fill="#00579F"/>
<path d="M5.4222 0.231079H0.0549095L0 0.488848C4.18682 1.54752 6.95967 4.09941 8.09891 7.16666L6.93213 1.30346C6.74003 0.488667 6.14971 0.257956 5.4222 0.231079Z" fill="#FAA61A"/>
</svg>
